PathFileType	4	(X/Y/Z)	5_coords_data.trc
DataRate	CameraRate	NumFrames	NumMarkers	Units	OrigDataRate	OrigDataStartFrame	OrigNumFrames
30.0	30.0	7	21	m	30.0	68	77
Frame#	Time	THUMB_TIP	THUMB_IP	THUMB_MCP	THUMB_CMC	INDEX_TIP	INDEX_DIP	INDEX_PIP	INDEX_MCP	MIDDLE_TIP	MIDDLE_DIP	MIDDLE_PIP	MIDDLE_MCP	RING_TIP	RING_DIP	RING_PIP	RING_MCP	PINKY_TIP	PINKY_DIP	PINKY_PIP	PINKY_MCP	WRIST
X1	Y1	Z1	X2	Y2	Z2	X3	Y3	Z3	X4	Y4	Z4	X5	Y5	Z5	X6	Y6	Z6	X7	Y7	Z7	X8	Y8	Z8	X9	Y9	Z9	X10	Y10	Z10	X11	Y11	Z11	X12	Y12	Z12	X13	Y13	Z13	X14	Y14	Z14	X15	Y15	Z15	X16	Y16	Z16	X17	Y17	Z17	X18	Y18	Z18	X19	Y19	Z19	X20	Y20	Z20	X21	Y21	Z21
67	2.2333333333333334	-0.01579599952697754	-0.1321739959716797	1.0055399780273437	-0.019466400146484375	-0.11006300354003906	1.01752001953125	-0.035166500091552734	-0.0949644012451172	1.0383199462890624	-0.03562260055541992	-0.06264939880371094	1.048239990234375	-0.014165300369262696	-0.08776439666748047	0.9137639770507813	-0.022836700439453125	-0.08580950164794922	0.934969970703125	-0.032381301879882814	-0.08319989776611328	0.9565560302734375	-0.040719398498535155	-0.07796600341796875	0.9917650146484375	-0.010355099678039551	-0.059528900146484376	0.8986170043945313	-0.01690880012512207	-0.06117829895019531	0.9226119995117188	-0.027385000228881837	-0.06117509841918945	0.9502100219726562	-0.039182899475097656	-0.0579468994140625	0.9857960205078125	-0.010824000358581543	-0.03834429931640625	0.9043679809570313	-0.01751740074157715	-0.03800870132446289	0.9279290161132813	-0.02703070068359375	-0.03801910018920898	0.95327001953125	-0.03548419952392578	-0.03970970153808594	0.9882659912109375	-0.013818200111389161	-0.011476099967956543	0.9293099975585938	-0.019735300064086914	-0.01458329963684082	0.9490139770507813	-0.024945899963378905	-0.017966800689697266	0.9664710083007813	-0.02921500015258789	-0.023459800720214842	0.9919039916992187	-0.05095209884643555	-0.03136030006408692	1.0610699462890625
68	2.2666666666666666	-0.01529800033569336	-0.1320989990234375	1.0056900024414062	-0.019266000747680666	-0.11009400177001953	1.0176799926757814	-0.034925498962402345	-0.09516329956054688	1.0386600341796874	-0.035659500122070316	-0.06281520080566406	1.0484100341796876	-0.01443280029296875	-0.08839939880371094	0.914030029296875	-0.023118200302124022	-0.08637169647216797	0.9351719970703125	-0.032654098510742184	-0.08368609619140625	0.9567349853515625	-0.04098979949951172	-0.07828299713134766	0.9919400024414062	-0.010636699676513673	-0.06024489974975586	0.8988380126953125	-0.01716710090637207	-0.061738800048828125	0.9228740234375	-0.02759830093383789	-0.06161410140991211	0.950468994140625	-0.03940800094604492	-0.058214698791503906	0.9859299926757813	-0.011032899856567384	-0.03866460037231445	0.9045	-0.017751100540161133	-0.03832440185546875	0.9280900268554687	-0.02736759948730469	-0.038284400939941406	0.9535050048828125	-0.03584640121459961	-0.03993719863891602	0.9883909912109375	-0.014180999755859375	-0.011729700088500977	0.9293800048828125	-0.020108999252319334	-0.014791500091552735	0.949114013671875	-0.025274499893188477	-0.01815839958190918	0.9665999755859375	-0.029509700775146485	-0.023649900436401368	0.9920120239257812	-0.050974899291992185	-0.031477300643920895	1.06127001953125
69	2.3	-0.015217499732971191	-0.13222700500488282	1.0057999877929686	-0.0191382999420166	-0.11024600219726563	1.017780029296875	-0.03490359878540039	-0.09530760192871093	1.0388199462890626	-0.035639801025390626	-0.06300519943237305	1.0486400146484376	-0.01423349952697754	-0.08886499786376953	0.9143759765625	-0.02294930076599121	-0.08678309631347657	0.9354769897460937	-0.032509700775146484	-0.0840602035522461	0.9570170288085937	-0.0410364990234375	-0.07855549621582031	0.9922509765625	-0.010774700164794922	-0.06050630187988281	0.8990689697265625	-0.017293399810791015	-0.061992000579833985	0.9231370239257812	-0.02773040008544922	-0.06185430145263672	0.9507420043945313	-0.039544601440429684	-0.058408798217773436	0.9862680053710937	-0.011222299575805663	-0.03884799957275391	0.9047039794921875	-0.017916500091552736	-0.038491600036621096	0.92827099609375	-0.027549299240112304	-0.03847520065307617	0.9536110229492187	-0.035892601013183596	-0.040114799499511716	0.988791015625	-0.014406499862670898	-0.011855600357055664	0.92960302734375	-0.02037459945678711	-0.014902199745178223	0.9493770141601563	-0.02544759941101074	-0.018287099838256837	0.9668099975585938	-0.029631399154663087	-0.023790599822998047	0.9923040161132812	-0.05072029876708985	-0.0318218994140625	1.0614000244140624
70	2.3333333333333335	-0.015277700424194336	-0.132375	1.0058099975585937	-0.01934760093688965	-0.11034700012207031	1.0179400024414063	-0.03501119995117188	-0.0955895004272461	1.038989990234375	-0.03557699966430664	-0.06322969818115234	1.0488800048828124	-0.01380869960784912	-0.08917960357666016	0.9147780151367187	-0.02261790084838867	-0.08708719635009765	0.93585498046875	-0.03226369857788086	-0.08433930206298829	0.957301025390625	-0.04106269836425781	-0.07877519989013672	0.9924810180664062	-0.010172200202941895	-0.060659599304199216	0.8995339965820313	-0.016862300872802733	-0.06221080017089844	0.923469970703125	-0.02746969985961914	-0.062086601257324216	0.9510540161132812	-0.039607498168945314	-0.05864970016479492	0.9864819946289063	-0.010724499702453613	-0.03906890106201172	0.9051069946289062	-0.01756100082397461	-0.03871969985961914	0.9285170288085938	-0.027252599716186522	-0.03865689849853516	0.953864013671875	-0.03592319869995117	-0.04033190155029297	0.9888280029296875	-0.014147100448608398	-0.012012999534606933	0.9299520263671875	-0.02010770034790039	-0.015099200248718261	0.9496430053710937	-0.025330299377441405	-0.018505800247192384	0.9671480102539063	-0.029577699661254883	-0.024067100524902345	0.99247900390625	-0.05068870162963867	-0.03193320083618164	1.0617099609375
71	2.3666666666666667	-0.015142000198364258	-0.1323560028076172	1.005739990234375	-0.01905590057373047	-0.11051100158691406	1.0178499755859376	-0.03477669906616211	-0.09575499725341798	1.0391300048828125	-0.03532989883422852	-0.0635157012939453	1.048989990234375	-0.014560700416564942	-0.0892615966796875	0.914739013671875	-0.023247900009155272	-0.08717919921875	0.9359439697265625	-0.03277859878540039	-0.08446360015869141	0.9575020141601562	-0.04128870010375976	-0.07892510223388671	0.992781982421875	-0.010818300247192382	-0.06064670181274414	0.8995679931640626	-0.01745479965209961	-0.06223649978637695	0.923583984375	-0.027930900573730467	-0.062153999328613284	0.9511129760742187	-0.03983789825439453	-0.058787399291992185	0.98672900390625	-0.011179400444030761	-0.039001800537109374	0.9052030029296875	-0.017957000732421874	-0.03872639846801758	0.9286320190429688	-0.027591299057006836	-0.038687599182128905	0.9541019897460937	-0.036090099334716796	-0.04048659896850586	0.98902197265625	-0.014482799530029298	-0.012123200416564941	0.9300789794921875	-0.02034440040588379	-0.015206299781799316	0.9498159790039062	-0.02552939987182617	-0.01863789939880371	0.967344970703125	-0.029716400146484374	-0.02421689987182617	0.9927340087890625	-0.050384201049804685	-0.03231399917602539	1.0618399658203126
72	2.4	-0.014899399757385254	-0.1323489990234375	1.0056900024414062	-0.019010499954223634	-0.11048500061035156	1.0179299926757812	-0.03479890060424805	-0.09594869995117188	1.0391800537109375	-0.035338001251220705	-0.0636780014038086	1.0490999755859376	-0.015008299827575684	-0.08936139678955078	0.91475	-0.023632299423217772	-0.0873031005859375	0.9360419921875	-0.03308140182495117	-0.08459519958496094	0.9575689697265625	-0.0414292984008789	-0.07907420349121094	0.992781005859375	-0.011207200050354004	-0.06073799896240235	0.8996380004882812	-0.01778569984436035	-0.062330001831054686	0.9236400146484375	-0.028179899215698242	-0.06220999908447265	0.9512760009765625	-0.03992770004272461	-0.058945201873779295	0.9866400146484375	-0.011550999641418458	-0.039130901336669924	0.9052940063476562	-0.018289300918579103	-0.038848201751708986	0.9287490234375	-0.027825599670410157	-0.03878340148925781	0.9541829833984375	-0.036297500610351564	-0.040608001708984376	0.98902197265625	-0.014817399978637695	-0.012218600273132324	0.9301829833984375	-0.02065679931640625	-0.015305500030517578	0.9499190063476562	-0.02576129913330078	-0.01872990036010742	0.967416015625	-0.029863000869750977	-0.02434519958496094	0.99277099609375	-0.05044599914550781	-0.03239550018310547	1.062050048828125
73	2.433333333333333	-0.015087900161743164	-0.13251699829101563	1.005760009765625	-0.019085800170898438	-0.1106780014038086	1.018	-0.034768901824951175	-0.0960552978515625	1.0393599853515625	-0.035361099243164065	-0.06386589813232423	1.049280029296875	-0.014901399612426758	-0.08962049865722656	0.9149959716796875	-0.023551599502563476	-0.08753720092773437	0.9362429809570313	-0.03300609970092774	-0.08482080078125	0.9577249755859375	-0.04146649932861328	-0.07928040313720704	0.9929359741210938	-0.011044599533081055	-0.060765800476074217	0.8998599853515625	-0.017660900115966795	-0.06241680145263672	0.9238920288085938	-0.02812350082397461	-0.06237540054321289	0.9514420166015625	-0.03997769927978516	-0.05908489990234375	0.9868410034179688	-0.011457300186157227	-0.03920660018920898	0.9055089721679688	-0.018214000701904296	-0.038967098236083984	0.92897802734375	-0.027764400482177733	-0.03894100189208984	0.954406005859375	-0.0362400016784668	-0.04076419830322266	0.9892659912109375	-0.014683600425720214	-0.012403100013732911	0.9304089965820312	-0.02057379913330078	-0.015487899780273437	0.9501820068359375	-0.025724300384521483	-0.018895200729370117	0.967676025390625	-0.029883899688720704	-0.024503700256347655	0.9929979858398438	-0.05041469955444336	-0.03271860122680664	1.0620799560546874
